<svg width="254" height="58" viewBox="0 0 254 58" fill="none" xmlns="http://www.w3.org/2000/svg">
<path opacity="0.47" d="M42.2732 26.6577L32.1231 19.9654L4.35 2.78847C6.46924 5.13078 8.0308 7.91919 9.14619 10.8192C9.92696 12.7154 10.3731 14.7231 10.7077 16.7308L31.5654 29.7808C32.3462 30.3385 32.5693 31.3424 32.0116 32.1231C32.0116 32.1231 32.0116 32.2346 31.9001 32.2346L31.7885 32.3462L31.677 32.4577H31.5654L31.4539 32.5693L11.2654 44.8385C10.7077 45.1731 9.92695 45.0616 9.59234 44.5039C9.4808 44.2808 9.36925 44.0578 9.36925 43.8347V15.8384C9.03463 14.1654 8.5885 12.3807 8.0308 10.8192C6.5808 6.80381 4.0154 3.23458 0.669239 0.446114L0 0V52.6462C0 55.5462 2.34232 57.777 5.13079 57.777C6.13464 57.777 7.13849 57.4424 7.91926 56.8847L42.0501 35.5808C44.6155 33.9077 45.2847 30.5616 43.6117 27.9962C43.5001 27.55 42.9424 26.9923 42.2732 26.6577Z" fill="white"/>
<path d="M42.2739 26.6583L32.1239 19.966C35.4701 22.7545 36.0278 27.6622 33.2393 31.1199C32.7931 31.566 32.347 32.0122 31.9008 32.4584L31.7893 32.5699L31.6778 32.6814L31.5662 32.793L17.0662 41.3815L11.4892 45.1738C10.9315 45.5084 10.1508 45.3968 9.81616 44.8391C9.70462 44.616 9.5931 44.393 9.5931 44.1699V16.1737C9.25848 14.3891 8.81231 12.716 8.14307 11.0429C6.69307 7.02751 4.12771 3.45828 0.781544 0.669815L0.112305 0.223633V52.8699C0.112305 55.7699 2.45463 58.0008 5.24309 58.0008C6.24694 58.0008 7.25079 57.6661 8.03156 57.1084L42.1624 35.8045C44.7278 34.1314 45.397 30.7853 43.724 28.2199C43.5009 27.5507 42.9432 26.9929 42.2739 26.6583Z" fill="white"/>
<path d="M73.6159 39.7068H68.7082C68.3736 39.7068 68.2621 39.3723 68.039 39.0376L63.689 30.8953H63.3544C62.6852 30.8953 61.6813 30.7837 61.1236 30.7837V38.9261C61.1236 39.2607 60.789 39.5953 60.4544 39.5953H56.3274C55.9928 39.5953 55.6582 39.2607 55.6582 38.9261V17.5106C55.6582 16.3952 56.1044 16.1722 57.1082 15.9491C59.2274 15.6145 61.4582 15.5029 63.5775 15.5029C69.0429 15.5029 73.1698 17.2876 73.1698 22.976V23.4222C73.2813 26.2107 71.7198 28.776 69.0429 29.7799L73.839 38.8145C73.9506 38.9261 73.9506 39.0376 73.9506 39.1492C74.0621 39.5953 73.9506 39.7068 73.6159 39.7068ZM67.8159 23.1991C67.8159 21.1914 66.3659 20.4107 63.5775 20.4107C63.1313 20.4107 61.4582 20.5222 61.1236 20.5222V26.6568C61.4582 26.6568 63.0198 26.7684 63.3544 26.7684C66.7005 26.7684 67.8159 25.8761 67.8159 23.7568V23.1991Z" fill="white"/>
<path d="M92.0193 32.2355H81.7577V32.347C81.7577 34.1317 82.5385 35.8047 85.1039 35.8047C87.1116 35.8047 90.0116 35.6932 91.2385 35.4701H91.3501C91.6847 35.4701 91.9078 35.5817 91.9078 36.0278V38.4817C91.9078 39.0394 91.7962 39.2624 91.2385 39.374C89.1193 39.9317 86.8885 40.1548 84.6577 40.1548C80.7539 40.1548 76.627 38.147 76.627 31.9009V29.6701C76.627 24.5393 79.6385 21.3047 84.7693 21.3047C89.9001 21.3047 92.6885 24.8739 92.6885 29.6701V31.5663C92.6885 31.9009 92.3539 32.2355 92.0193 32.2355ZM87.5578 28.8893C87.5578 26.547 86.4424 25.3201 84.6577 25.3201C82.8731 25.3201 81.7577 26.547 81.7577 28.8893V29.0009H87.5578V28.8893Z" fill="white"/>
<path d="M110.98 39.708H107.077C106.742 39.708 106.407 39.3734 106.407 39.0388V27.7734C106.407 26.3234 106.184 25.3195 104.511 25.3195H102.95C101.277 25.3195 101.054 26.3234 101.054 27.7734V39.0388C101.054 39.3734 100.719 39.708 100.384 39.708H96.4805C96.1458 39.708 95.8112 39.3734 95.9228 39.0388V27.7734C95.9228 23.3118 98.3766 21.0811 102.95 21.0811H104.511C109.084 21.0811 111.538 23.3118 111.538 27.7734V39.0388C111.538 39.485 111.315 39.708 110.98 39.708Z" fill="white"/>
<path d="M129.496 39.2618C127.265 39.8195 125.034 40.0426 122.692 40.1542C117.561 40.1542 114.661 37.1426 114.661 32.0118V29.558C114.661 24.5388 117.338 21.4156 122.692 21.4156C123.584 21.4156 124.477 21.5272 125.369 21.6387V16.0618C125.369 15.7272 125.703 15.3926 126.038 15.3926H129.83C130.165 15.3926 130.5 15.7272 130.5 16.0618V38.4811C130.5 38.8157 130.388 39.0387 129.496 39.2618ZM125.369 25.6542C124.477 25.5426 123.584 25.5426 122.692 25.5426C120.461 25.5426 119.792 27.2157 119.792 29.4464V31.9003C119.792 34.1311 120.461 35.8041 122.692 35.8041C123.584 35.8041 124.477 35.6926 125.369 35.5811V25.6542Z" fill="white"/>
<path d="M149.127 32.2355H138.977V32.347C138.977 34.1317 139.757 35.8047 142.323 35.8047C144.331 35.8047 147.231 35.6932 148.457 35.4701C148.792 35.4701 149.015 35.5817 149.015 36.0278V38.4817C149.015 39.0394 148.904 39.2624 148.346 39.374C146.227 39.9317 143.996 40.1548 141.765 40.1548C137.861 40.1548 133.734 38.147 133.734 31.9009V29.6701C133.734 24.5393 136.746 21.3047 141.877 21.3047C147.007 21.3047 149.796 24.8739 149.796 29.6701V31.5663C149.796 31.9009 149.573 32.2355 149.127 32.2355ZM144.777 28.8893C144.777 26.547 143.661 25.3201 141.877 25.3201C140.092 25.3201 138.977 26.547 138.977 28.8893V29.0009H144.777V28.8893Z" fill="white"/>
<path d="M161.285 25.4315C160.282 25.4315 159.389 25.4315 158.385 25.6546V39.0392C158.385 39.3738 158.051 39.7084 157.716 39.7084H153.812C153.478 39.7084 153.143 39.3738 153.143 39.0392V23.0891C153.143 22.643 153.366 22.3084 154.147 22.0853C156.489 21.4161 158.832 21.0815 161.174 21.193C161.508 21.193 162.066 21.3046 162.066 21.7507V24.8738C162.066 25.2084 161.843 25.4315 161.285 25.4315Z" fill="white"/>
<path d="M174.223 25.3198H169.873V39.1506C169.873 39.4853 169.539 39.8198 169.204 39.8198H165.3C164.965 39.8198 164.631 39.4853 164.631 39.1506V20.1891C164.631 15.7275 167.642 14.7236 170.877 14.7236C171.992 14.7236 173.219 14.8352 174.335 15.0583C174.669 15.1698 174.781 15.2814 174.781 15.3929V18.0698C174.781 18.4044 174.669 18.6275 174.335 18.6275H170.989C169.985 18.6275 169.762 19.1852 169.762 20.1891V21.416H174.112C174.446 21.416 174.781 21.7506 174.781 22.0852V24.6506C174.892 24.9852 174.669 25.3198 174.223 25.3198Z" fill="white"/>
<path d="M185.155 40.0426C180.024 40.0426 177.124 36.808 177.124 31.6772V29.4465C177.124 24.3157 180.024 21.0811 185.155 21.0811C190.397 21.0811 193.186 24.3157 193.186 29.4465V31.6772C193.074 36.808 190.286 40.0426 185.155 40.0426ZM187.943 29.4465C187.943 26.8811 186.939 25.5426 185.043 25.5426C183.147 25.5426 182.143 26.8811 182.143 29.4465V31.6772C182.143 34.2426 183.147 35.5811 185.043 35.5811C186.939 35.5811 187.943 34.2426 187.943 31.6772V29.4465Z" fill="white"/>
<path d="M204.45 25.4315C203.447 25.4315 202.554 25.4315 201.55 25.6546V39.0392C201.55 39.3738 201.216 39.7084 200.881 39.7084H196.977C196.643 39.7084 196.308 39.3738 196.308 39.0392V23.0891C196.308 22.643 196.531 22.3084 197.312 22.0853C199.654 21.4161 201.997 21.0815 204.339 21.193C204.674 21.193 205.231 21.3046 205.231 21.7507V24.8738C205.343 25.2084 205.12 25.4315 204.45 25.4315Z" fill="white"/>
<path d="M222.855 32.2355H212.705V32.347C212.705 34.1317 213.485 35.8047 216.051 35.8047C218.058 35.8047 220.958 35.6932 222.185 35.4701H222.297C222.631 35.4701 222.855 35.5817 222.855 36.0278V38.4817C222.855 39.0394 222.743 39.2624 222.185 39.374C220.066 39.9317 217.835 40.1548 215.605 40.1548C211.701 40.1548 207.574 38.147 207.574 31.9009V29.6701C207.574 24.5393 210.585 21.3047 215.716 21.3047C220.847 21.3047 223.635 24.8739 223.635 29.6701V31.5663C223.524 31.9009 223.189 32.2355 222.855 32.2355ZM218.505 28.8893C218.505 26.547 217.389 25.3201 215.605 25.3201C213.82 25.3201 212.705 26.547 212.705 28.8893V29.0009H218.505V28.8893Z" fill="white"/>
<path d="M232.893 40.0424C230.885 40.0424 228.989 39.8193 227.093 39.3732C226.758 39.2616 226.535 39.0386 226.535 38.5924V36.027C226.535 35.6924 226.758 35.4693 227.093 35.4693H227.204C228.989 35.6924 231.666 35.9154 232.67 35.9154C234.231 35.9154 234.566 35.4693 234.566 34.6885C234.566 34.2424 234.231 33.7962 233.339 33.3501L229.212 30.8962C227.427 30.0039 226.312 28.1078 226.312 26.2116C226.312 22.977 228.431 21.1924 232.893 21.1924C234.789 21.1924 236.685 21.4154 238.581 21.9731C238.916 22.0846 239.139 22.3077 239.139 22.7539V25.3193C239.139 25.6539 238.916 25.877 238.581 25.877H238.47C236.685 25.6539 234.9 25.5424 233.116 25.4308C231.889 25.4308 231.443 25.6539 231.443 26.3231C231.443 26.7693 231.777 27.1039 232.447 27.4385L236.462 29.6693C239.139 31.2308 239.697 32.9039 239.697 34.577C239.697 37.7001 237.577 40.0424 232.893 40.0424Z" fill="white"/>
<path d="M252.524 25.3194H248.174V34.8002C248.174 35.9156 248.732 36.1387 250.071 36.1387H252.413C252.859 36.1387 253.082 36.3618 253.082 36.6964V39.1503C253.082 39.4849 252.859 39.7079 252.413 39.8195C251.186 40.0425 249.848 40.1541 248.621 40.1541C245.051 40.1541 242.932 39.0387 242.932 34.9118V18.8502C242.932 18.5156 243.267 18.2925 243.601 18.181L247.505 17.5117H247.617C247.951 17.5117 248.174 17.8464 248.174 18.181V21.5272H252.524C252.859 21.5272 253.194 21.8617 253.194 22.1964V24.7617C253.194 24.9848 252.859 25.3194 252.524 25.3194Z" fill="white"/>
</svg>
